<?xml version="1.0" encoding="UTF-8"?>
<svg id="visual" xmlns="http://www.w3.org/2000/svg" version="1.1" viewBox="0 0 450 450">
  <defs>
    <style>
      .cls-1 {
        fill: #130b0b;
      }

      .cls-1, .cls-2, .cls-3, .cls-4, .cls-5, .cls-6 {
        stroke-width: 0px;
      }

      .cls-2 {
        fill: #3554a5;
      }

      .cls-3 {
        fill: #2c1718;
      }

      .cls-4 {
        fill: #9f3b3e;
      }

      .cls-5 {
        fill: #63292c;
      }

      .cls-6 {
        fill: #1b2a53;
      }
    </style>
  </defs>
  <path class="cls-1" d="M343.6,443.4c-2.8,2.4-5.7,4.6-8.7,6.6h15.3s0,0,0,0l-6.5-6.5Z"/>
  <path class="cls-1" d="M133.1,233.2c1.1-16.4,7.4-32.5,18.9-45.6l-6.5-6.5c-2.1-2.1-2.1-5.6,0-7.7,2.1-2.1,5.6-2.1,7.7,0,0,0,5.2,8.3,6.4,6.4,3.9-6.2,14-15.7,26.4-22.4,0,0,0,0-.1,0l-6.5-6.5c-12.8,11.2-28.7,17.7-45.6,18.9v9.2c0,3-2.4,5.4-5.4,5.4s-5.4-2.4-5.4-5.4v-9.2c-14.7-1-28.7-6.1-40.5-14.8,10.2,11.5,18.9,23.9,25.7,37.1,6.7,13.1,11.6,26.9,15.4,41.3.2,0,.3,0,.5,0h9.3Z"/>
  <path class="cls-1" d="M233.8,435.7c-11.4-13.1-17.7-29.2-18.9-45.6h-9.3c-3,0-5.4-2.4-5.4-5.4s2.4-5.4,5.4-5.4h9.3c1.1-16.4,7.4-32.5,18.9-45.6l-6.5-6.5c-2.1-2.1-2.1-5.6,0-7.7,2.1-2.1,5.6-2.1,7.7,0,0,0,5.2,8.3,6.4,6.4,3.9-6.2,14-15.7,26.4-22.4l-6-6c-12.8,11.2-28.7,17.7-45.6,18.9v9.2c0,3-2.4,5.4-5.4,5.4s-5.4-2.4-5.4-5.4v-9.2c-16.9-1.2-32.8-7.7-45.6-18.9l-11.7,11.7c-1.4,1.4-5.3,1.5-7.4-.3-2-1.8-1.9-5.8-.3-7.4l11.7-11.7c-11.4-13.1-17.7-29.2-18.9-45.6h-7.1c9.3,40.9,11.8,84.9,25.9,124.8,10.2,28.8,26.4,55.5,45.7,81.1h23.4c.1-1,.5-2,1.1-2.6l11.7-11.7Z"/>
  <path class="cls-1" d="M182.3,21.9l6.5-6.5c2.1-2.1,5.6-2.1,7.7,0,2.1,2.1,2.1,5.6,0,7.7l-6.5,6.5c11.4,13.1,17.7,29.2,18.9,45.6h9.3c3,0,5.4,2.4,5.4,5.4,0,3-2.4,5.4-5.4,5.4h-9c1.7,12.9-8.6,42.8-22,56.2l6.4,7.3c1,1,1.5,2.2,1.6,3.5,4.3-1.7,8.7-2.9,13.2-3.5,2.3-.3,0-9.2,0-9.2,0-3,2.4-5.4,5.4-5.4s5.4,2.4,5.4,5.4v9.2c16.9,1.2,32.8,7.7,45.6,18.9l6.5-6.5c2.1-2.1,5.6-2.1,7.7,0,2.1,2.1,2.1,5.6,0,7.7l-6.5,6.5c11.4,13.1,17.7,29.2,18.9,45.6h9.3c3,0,5.4,2.4,5.4,5.4,0,3-2.4,5.4-5.4,5.4h-9c1.7,12.9-8.6,42.8-22,56.2l6.4,7.3c.8.8,1.2,1.7,1.4,2.7,4.1-1.5,8.4-2.7,12.6-3.2,2.3-.3,0-9.2,0-9.2,0-3,2.4-5.4,5.4-5.4s5.4,2.4,5.4,5.4v9.2c16.9,1.2,32.8,7.7,45.6,18.9l6.5-6.5c2.1-2.1,5.6-2.1,7.7,0,2.1,2.1,2.1,5.6,0,7.7l-6.5,6.5c11.4,13.1,17.7,29.2,18.9,45.6h9.3c3,0,5.4,2.4,5.4,5.4,0,3-2.4,5.4-5.4,5.4h-9c1.7,12.9-8.6,42.8-22,56.2l6.4,7.3c2.1,2.1,2.1,5.6,0,7.7,0,0,0,0,0,0h92.3v-96.3c-40.4-25.8-76-60.9-105.9-97.8-39.2-48.2-68.8-99.6-93.2-155.2-14.1-32.4-26.5-66.2-38.2-100.7h-76v3c16.9,1.2,32.8,7.7,45.6,18.9Z"/>
  <path class="cls-1" d="M50.7,97.5h-9.3c-3,0-5.4-2.4-5.4-5.4s2.4-5.4,5.4-5.4h9.3c1.1-16.4,7.4-32.5,18.9-45.6l-6.5-6.5c-2.1-2.1-2.1-5.6,0-7.7,2.1-2.1,5.6-2.1,7.7,0,0,0,5.2,8.3,6.4,6.4,6.1-9.7,27.2-27.3,48.8-30.1.9-.1,1.1-1.4,1-3H0v92.7c23.7,12.3,46,27.2,64.9,44.5-8.5-11.9-13.3-25.8-14.3-39.8Z"/>
  <path class="cls-1" d="M241.5,443.4l-6.6,6.6h15.3c-3-2-6-4.2-8.7-6.6Z"/>
  <path class="cls-3" d="M344.1,255.9c29.9,36.9,65.5,72,105.9,97.8v-121.1c-14.3-13.4-27.6-28-39.7-42.9-31.4-38.5-55-79.6-74.5-124.2-9.3-21.2-17.6-43.1-25.5-65.5h-97.6c11.7,34.5,24.1,68.3,38.2,100.7,24.4,55.6,54,107,93.2,155.2Z"/>
  <path class="cls-5" d="M410.3,189.7c12.1,14.9,25.4,29.5,39.7,42.9V86.6c-11.2-17.9-20.8-36.6-29.4-56.2-4.4-9.9-8.4-20.1-12.3-30.4h-97.9c7.9,22.4,16.2,44.3,25.5,65.5,19.5,44.6,43.1,85.7,74.5,124.2Z"/>
  <path class="cls-4" d="M450,86.6V0h-41.7c3.9,10.3,8,20.5,12.3,30.4,8.6,19.6,18.2,38.2,29.4,56.2Z"/>
  <path class="cls-3" d="M126,244.1h-2.2c-3,0-5.4-2.4-5.4-5.4s2.2-5.2,4.9-5.4c-3.8-14.3-8.6-28.2-15.4-41.3-6.8-13.2-15.5-25.6-25.7-37.1-1.8-1.3-3.5-2.7-5.2-4.1l-11.7,11.7c-1.4,1.4-5.3,1.5-7.4-.3s-1.9-5.8-.3-7.4l11.7-11.7c-1.6-1.9-3.2-3.8-4.6-5.8C46,120,23.7,105.1,0,92.7v116.1c17.3,14.4,31.8,31.1,41.4,49.8,21.9,42.4,18.8,95.4,35.2,141.5,6.2,17.5,15.1,34,25.9,49.9h95.2c-19.3-25.6-35.5-52.3-45.7-81.1-14.1-39.9-16.6-83.9-25.9-124.8Z"/>
  <path class="cls-5" d="M41.4,258.6c-9.6-18.7-24.1-35.4-41.4-49.8v218.9c.4,1.2.8,2.4,1.2,3.5,2.3,6.4,5,12.6,8.2,18.7h93.1c-10.7-15.9-19.7-32.4-25.9-49.9-16.4-46.1-13.3-99.1-35.2-141.5Z"/>
  <path class="cls-4" d="M0,427.8v22.2h9.4c-3.2-6.1-5.9-12.3-8.2-18.7-.4-1.2-.8-2.4-1.2-3.5Z"/>
  <path class="cls-2" d="M269.7,289c13.4-13.4,23.7-43.4,22-56.2h9c3,0,5.4-2.4,5.4-5.4,0-3-2.4-5.4-5.4-5.4h-9.3c-1.1-16.4-7.4-32.5-18.9-45.6l6.5-6.5c2.1-2.1,2.1-5.6,0-7.7-2.1-2.1-5.6-2.1-7.7,0l-6.5,6.5c-12.8-11.2-28.7-17.7-45.6-18.9v-9.2c0-3-2.4-5.4-5.4-5.4s-5.4,2.4-5.4,5.4c0,0,2.3,8.9,0,9.2-4.5.6-8.9,1.8-13.2,3.5,0,1.5-.4,3-1.6,4.2-1.1,1.1-2.5,1.6-3.8,1.6s-2.7-.5-3.7-1.5c-12.4,6.7-22.5,16.2-26.4,22.4-1.2,1.9-6.4-6.4-6.4-6.4-2.1-2.1-5.6-2.1-7.7,0-2.1,2.1-2.1,5.6,0,7.7l6.5,6.5c-11.4,13.1-17.7,29.2-18.9,45.6h-9.3c-.2,0-.3,0-.5,0-2.8.2-4.9,2.6-4.9,5.4s2.4,5.4,5.4,5.4h9.3c1.1,16.4,7.4,32.5,18.9,45.6l-11.7,11.7c-1.6,1.6-1.7,5.5.3,7.4,2,1.8,6,1.7,7.4.3l11.7-11.7c12.8,11.2,28.7,17.7,45.6,18.9v9.2c0,3,2.4,5.4,5.4,5.4s5.4-2.4,5.4-5.4v-9.2c16.9-1.2,32.8-7.7,45.6-18.9l6,6c3.1-1.7,6.4-3.2,9.7-4.4-.2-1-.7-1.9-1.4-2.7l-6.4-7.3ZM175.4,253.8c-3.5,0-6.4-2.9-6.4-6.4s2.9-6.4,6.4-6.4,6.4,2.9,6.4,6.4-2.9,6.4-6.4,6.4ZM212.1,233.6c-3.5,0-6.4-2.9-6.4-6.4s2.9-6.4,6.4-6.4,6.4,2.9,6.4,6.4-2.9,6.4-6.4,6.4ZM218.5,197.1c-3.5,0-6.4-2.9-6.4-6.4s2.9-6.4,6.4-6.4,6.4,2.9,6.4,6.4-2.9,6.4-6.4,6.4ZM238.8,272.1c-3.5,0-6.4-2.9-6.4-6.4s2.9-6.4,6.4-6.4,6.4,2.9,6.4,6.4-2.9,6.4-6.4,6.4ZM251.6,233c-3.5,0-6.4-2.9-6.4-6.4s2.9-6.4,6.4-6.4,6.4,2.9,6.4,6.4-2.9,6.4-6.4,6.4Z"/>
  <circle class="cls-6" cx="218.5" cy="190.7" r="6.4"/>
  <circle class="cls-6" cx="175.4" cy="247.4" r="6.4" transform="translate(-37.4 31.3) rotate(-9.2)"/>
  <circle class="cls-6" cx="238.8" cy="265.8" r="6.4" transform="translate(-39.5 41.7) rotate(-9.2)"/>
  <circle class="cls-6" cx="251.6" cy="226.6" r="6.4"/>
  <circle class="cls-6" cx="212.1" cy="227.2" r="6.4" transform="translate(-33.7 36.9) rotate(-9.2)"/>
  <path class="cls-2" d="M250.2,450h84.6c3-2,6-4.2,8.7-6.6l6.5,6.5s0,0,0,0h7.6s0,0,0,0c2.1-2.1,2.1-5.6,0-7.7l-6.4-7.3c13.4-13.4,23.7-43.4,22-56.2h9c3,0,5.4-2.4,5.4-5.4,0-3-2.4-5.4-5.4-5.4h-9.3c-1.1-16.4-7.4-32.5-18.9-45.6l6.5-6.5c2.1-2.1,2.1-5.6,0-7.7-2.1-2.1-5.6-2.1-7.7,0l-6.5,6.5c-12.8-11.2-28.7-17.7-45.6-18.9v-9.2c0-3-2.4-5.4-5.4-5.4s-5.4,2.4-5.4,5.4c0,0,2.3,8.9,0,9.2-4.3.6-8.5,1.7-12.6,3.2-3.3,1.2-6.6,2.8-9.7,4.4-12.4,6.7-22.5,16.2-26.4,22.4-1.2,1.9-6.4-6.4-6.4-6.4-2.1-2.1-5.6-2.1-7.7,0-2.1,2.1-2.1,5.6,0,7.7l6.5,6.5c-11.4,13.1-17.7,29.2-18.9,45.6h-9.3c-3,0-5.4,2.4-5.4,5.4s2.4,5.4,5.4,5.4h9.3c1.1,16.4,7.4,32.5,18.9,45.6l-11.7,11.7c-.6.6-1,1.5-1.1,2.6h13.9l6.6-6.6c2.8,2.4,5.7,4.6,8.7,6.6ZM333.4,366.2c3.5,0,6.4,2.9,6.4,6.4s-2.9,6.4-6.4,6.4-6.4-2.9-6.4-6.4,2.9-6.4,6.4-6.4ZM320.6,405.4c3.5,0,6.4,2.9,6.4,6.4s-2.9,6.4-6.4,6.4-6.4-2.9-6.4-6.4,2.9-6.4,6.4-6.4ZM300.3,330.3c3.5,0,6.4,2.9,6.4,6.4s-2.9,6.4-6.4,6.4-6.4-2.9-6.4-6.4,2.9-6.4,6.4-6.4ZM293.9,366.9c3.5,0,6.4,2.9,6.4,6.4s-2.9,6.4-6.4,6.4-6.4-2.9-6.4-6.4,2.9-6.4,6.4-6.4ZM257.2,387c3.5,0,6.4,2.9,6.4,6.4s-2.9,6.4-6.4,6.4-6.4-2.9-6.4-6.4,2.9-6.4,6.4-6.4Z"/>
  <circle class="cls-6" cx="300.3" cy="336.7" r="6.4"/>
  <circle class="cls-6" cx="257.2" cy="393.4" r="6.4"/>
  <circle class="cls-6" cx="320.6" cy="411.8" r="6.4"/>
  <circle class="cls-6" cx="333.4" cy="372.6" r="6.4"/>
  <circle class="cls-6" cx="293.9" cy="373.2" r="6.4"/>
  <path class="cls-2" d="M125.8,3c-21.5,2.8-42.6,20.4-48.8,30.1-1.2,1.9-6.4-6.4-6.4-6.4-2.1-2.1-5.6-2.1-7.7,0-2.1,2.1-2.1,5.6,0,7.7l6.5,6.5c-11.4,13.1-17.7,29.2-18.9,45.6h-9.3c-3,0-5.4,2.4-5.4,5.4s2.4,5.4,5.4,5.4h9.3c1,14,5.7,27.9,14.3,39.8,1.4,2,2.9,3.9,4.6,5.8l-11.7,11.7c-1.6,1.6-1.7,5.5.3,7.4s6,1.7,7.4.3l11.7-11.7c1.7,1.5,3.4,2.8,5.2,4.1,11.8,8.7,25.7,13.8,40.5,14.8v9.2c0,3,2.4,5.4,5.4,5.4s5.4-2.4,5.4-5.4v-9.2c16.9-1.2,32.8-7.7,45.6-18.9l6.5,6.5s0,0,.1,0c1,1,2.4,1.5,3.7,1.5s2.8-.5,3.8-1.6c1.1-1.1,1.6-2.7,1.6-4.2,0-1.3-.6-2.5-1.6-3.5l-6.4-7.3c13.4-13.4,23.7-43.4,22-56.2h9c3,0,5.4-2.4,5.4-5.4,0-3-2.4-5.4-5.4-5.4h-9.3c-1.1-16.4-7.4-32.5-18.9-45.6l6.5-6.5c2.1-2.1,2.1-5.6,0-7.7-2.1-2.1-5.6-2.1-7.7,0l-6.5,6.5c-12.8-11.2-28.7-17.7-45.6-18.9V0h-9.9c0,1.6-.1,2.9-1,3ZM92.9,107.1c-3.5,0-6.4-2.9-6.4-6.4s2.9-6.4,6.4-6.4,6.4,2.9,6.4,6.4-2.9,6.4-6.4,6.4ZM169.1,73.6c3.5,0,6.4,2.9,6.4,6.4s-2.9,6.4-6.4,6.4-6.4-2.9-6.4-6.4,2.9-6.4,6.4-6.4ZM156.3,112.7c3.5,0,6.4,2.9,6.4,6.4s-2.9,6.4-6.4,6.4-6.4-2.9-6.4-6.4,2.9-6.4,6.4-6.4ZM136,37.7c3.5,0,6.4,2.9,6.4,6.4s-2.9,6.4-6.4,6.4-6.4-2.9-6.4-6.4,2.9-6.4,6.4-6.4ZM136,80.6c0,3.5-2.9,6.4-6.4,6.4s-6.4-2.9-6.4-6.4,2.9-6.4,6.4-6.4,6.4,2.9,6.4,6.4Z"/>
  <circle class="cls-6" cx="136" cy="44.1" r="6.4"/>
  <circle class="cls-6" cx="92.9" cy="100.7" r="6.4" transform="translate(-14.9 16.2) rotate(-9.2)"/>
  <circle class="cls-6" cx="156.3" cy="119.1" r="6.4" transform="translate(-13.5 218) rotate(-67.5)"/>
  <circle class="cls-6" cx="169.1" cy="80" r="6.4"/>
  <circle class="cls-6" cx="129.6" cy="80.6" r="6.4"/>
</svg>